<?xml version="1.0" standalone="no"?><!DOCTYPE svg PUBLIC "-//W3C//DTD SVG 1.1//EN"
        "http://www.w3.org/Graphics/SVG/1.1/DTD/svg11.dtd">
<svg t="1592399457173" class="icon" viewBox="0 0 1024 1024" version="1.1" xmlns="http://www.w3.org/2000/svg" p-id="1196"
     width="48" height="48" xmlns:xlink="http://www.w3.org/1999/xlink">
    <defs>
        <style type="text/css"></style>
    </defs>
    <path d="M844.8 118.153846c5.907692-15.753846-1.969231-31.507692-17.723077-37.415384-15.753846-5.907692-31.507692 1.969231-37.415385 17.723076l-64.984615 173.292308L531.692308 86.646154c-11.815385-11.815385-29.538462-11.815385-41.353846 0l-191.015385 185.107692L234.338462 98.461538c-5.907692-15.753846-23.630769-23.630769-37.415385-17.723076-15.753846 5.907692-23.630769 23.630769-17.723077 37.415384l80.738462 214.646154c0 1.969231 0 1.969231 1.96923 3.938462L484.430769 925.538462c1.969231 1.969231 1.969231 3.938462 3.938462 7.876923l1.969231 1.96923c1.969231 1.969231 3.938462 3.938462 5.907692 3.938462 1.969231 1.969231 3.938462 1.969231 5.907692 3.938461 3.938462 1.969231 5.907692 1.969231 9.846154 1.969231s5.907692 0 9.846154-1.969231c1.969231 0 3.938462-1.969231 5.907692-3.938461 1.969231-1.969231 3.938462-3.938462 5.907692-3.938462l1.969231-1.96923c1.969231-1.969231 1.969231-3.938462 3.938462-7.876923l222.523077-588.8c0-1.969231 1.969231-1.969231 1.96923-3.938462L844.8 118.153846zM512 149.661538l189.046154 183.138462L512 832.984615l-189.046154-500.184615L512 149.661538z"
          fill="#12B9FF" p-id="1197"></path>
    <path d="M1004.307692 328.861538v-3.938461-3.938462-3.938461c0-1.969231 0-1.969231-1.96923-3.938462v-1.96923l-1.969231-1.969231s0-1.969231-1.969231-1.969231l-157.538462-216.615385c-5.907692-7.876923-13.784615-11.815385-23.630769-11.815384h-610.461538c-9.846154 0-17.723077 3.938462-23.630769 11.815384l-157.538462 216.615385s0 1.969231-1.969231 1.969231l-1.969231 1.969231v1.96923c0 1.969231 0 1.969231-1.96923 3.938462V328.861538c0 1.969231 0 1.969231 1.96923 3.938462 0 1.969231 0 1.969231 1.969231 3.938462v1.96923l1.969231 1.969231s0 1.969231 1.969231 1.969231l462.769231 590.769231c5.907692 7.876923 13.784615 11.815385 23.630769 11.815384s17.723077-3.938462 23.630769-11.815384l462.769231-590.769231s0-1.969231 1.969231-1.969231l1.96923-1.969231v-1.96923c0-1.969231 0-1.969231 1.969231-3.938462-3.938462 0-1.969231-1.969231-1.969231-3.938462zM222.523077 137.846154h580.923077l114.215384 157.538461H106.338462l116.184615-157.538461zM512 868.430769L110.276923 354.461538h803.446154L512 868.430769z"
          fill="#4069FF" p-id="1198"></path>
    <path d="M512 777.846154L659.692308 374.153846h-295.384616zM147.692308 374.153846L354.461538 630.153846l-108.307692-256zM777.846154 374.153846L669.538462 630.153846l206.76923-256z"
          fill="#E6F3FF" p-id="1199"></path>
</svg>