<?xml version="1.0" standalone="no"?><!DOCTYPE svg PUBLIC "-//W3C//DTD SVG 1.1//EN" "http://www.w3.org/Graphics/SVG/1.1/DTD/svg11.dtd"><svg t="1592400501506" class="icon" viewBox="0 0 1024 1024" version="1.1" xmlns="http://www.w3.org/2000/svg" p-id="2138" width="16" height="16" xmlns:xlink="http://www.w3.org/1999/xlink"><defs><style type="text/css"></style></defs><path d="M429.292308 984.615385c-35.446154 0-66.953846-27.569231-72.861539-63.015385l-11.815384-84.676923c-9.846154-5.907692-19.692308-9.846154-27.569231-17.723077l-74.830769 31.507692c-7.876923 3.938462-17.723077 5.907692-27.569231 5.907693-25.6 0-51.2-13.784615-63.015385-37.415385l-82.707692-145.723077c-17.723077-31.507692-9.846154-70.892308 17.723077-94.523077l64.984615-53.169231v-17.723077-17.723076l-64.984615-51.2c-27.569231-23.630769-35.446154-63.015385-17.723077-94.523077l82.707692-145.723077c13.784615-23.630769 37.415385-37.415385 64.984616-37.415385 7.876923 0 17.723077 1.969231 25.6 3.938462l76.8 31.507692c9.846154-5.907692 19.692308-11.815385 27.56923-17.723077l11.815385-82.707692C362.338462 64.984615 393.846154 39.384615 429.292308 39.384615h165.415384c35.446154 0 66.953846 25.6 72.861539 63.015385l11.815384 84.676923c9.846154 5.907692 19.692308 9.846154 27.569231 17.723077l74.830769-31.507692c35.446154-13.784615 72.861538 0 90.584616 31.507692l82.707692 145.723077c17.723077 31.507692 9.846154 70.892308-17.723077 94.523077l-64.984615 51.2V531.692308l64.984615 51.2c27.569231 23.630769 35.446154 63.015385 17.723077 94.523077l-82.707692 145.723077c-13.784615 23.630769-37.415385 37.415385-63.015385 37.415384-9.846154 0-17.723077-1.969231-27.569231-5.907692l-76.8-31.507692c-9.846154 5.907692-17.723077 11.815385-27.56923 17.723076l-11.815385 82.707693c-3.938462 33.476923-35.446154 61.046154-70.892308 61.046154h-165.415384z m-108.307693-226.461539c5.907692 0 11.815385 1.969231 17.723077 5.907692 15.753846 11.815385 31.507692 19.692308 47.261539 27.569231 9.846154 3.938462 15.753846 11.815385 15.753846 23.630769l13.784615 98.461539c1.969231 5.907692 5.907692 11.815385 13.784616 11.815385h165.415384c5.907692 0 13.784615-5.907692 13.784616-11.815385l13.784615-98.461539c1.969231-9.846154 7.876923-17.723077 15.753846-21.661538 15.753846-7.876923 31.507692-17.723077 47.261539-27.569231 7.876923-5.907692 19.692308-7.876923 29.538461-3.938461l90.584616 37.415384c3.938462 1.969231 13.784615 0 17.723077-5.907692l82.707692-145.723077c3.938462-5.907692 1.969231-13.784615-3.938462-19.692308l-76.8-61.046153c-7.876923-5.907692-11.815385-15.753846-11.815384-25.6s1.969231-19.692308 1.96923-27.569231c0-9.846154 0-17.723077-1.96923-27.569231 0-9.846154 3.938462-19.692308 11.815384-25.6l76.8-61.046154c5.907692-3.938462 5.907692-11.815385 3.938462-17.723077L823.138462 236.307692c-3.938462-5.907692-9.846154-7.876923-17.723077-5.907692l-90.584616 37.415385c-9.846154 3.938462-19.692308 1.969231-29.538461-3.938462-15.753846-9.846154-31.507692-19.692308-47.261539-27.569231-9.846154-3.938462-15.753846-11.815385-15.753846-21.661538l-13.784615-98.461539c-1.969231-11.815385-7.876923-17.723077-13.784616-17.723077h-163.446154c-7.876923 0-13.784615 5.907692-13.784615 11.815385l-13.784615 98.461539c-1.969231 9.846154-7.876923 17.723077-15.753846 23.630769-15.753846 7.876923-31.507692 17.723077-47.261539 27.569231-7.876923 5.907692-19.692308 7.876923-29.538461 3.938461l-90.584616-37.415385H216.615385c-5.907692 0-9.846154 1.969231-13.784616 7.876924l-82.707692 145.723076c-3.938462 5.907692-1.969231 13.784615 3.938461 19.692308l76.8 61.046154c7.876923 5.907692 11.815385 15.753846 11.815385 25.6s-1.969231 17.723077-1.969231 27.569231c0 7.876923 0 17.723077 1.969231 27.569231 0 9.846154-3.938462 19.692308-11.815385 25.6l-76.8 61.046153c-5.907692 3.938462-5.907692 11.815385-1.96923 17.723077l82.707692 145.723077c3.938462 5.907692 11.815385 7.876923 17.723077 5.907693l90.584615-37.415385s3.938462-1.969231 7.876923-1.969231z" fill="#4069FF" p-id="2139"></path><path d="M502.153846 728.615385C387.938462 728.615385 295.384615 636.061538 295.384615 521.846154S387.938462 315.076923 502.153846 315.076923 708.923077 407.630769 708.923077 521.846154 616.369231 728.615385 502.153846 728.615385z m0-354.461539c-80.738462 0-147.692308 66.953846-147.692308 147.692308s66.953846 147.692308 147.692308 147.692308 147.692308-66.953846 147.692308-147.692308-66.953846-147.692308-147.692308-147.692308z" fill="#12B9FF" p-id="2140"></path><path d="M884.184615 384l-78.76923-137.846154-84.676923 35.446154c-15.753846 5.907692-33.476923 3.938462-47.261539-5.907692s-27.569231-19.692308-43.323077-25.6c-15.753846-7.876923-25.6-21.661538-27.569231-37.415385L588.8 118.153846H433.230769l-13.784615 94.523077c-1.969231 15.753846-11.815385 31.507692-27.569231 37.415385-15.753846 7.876923-29.538462 15.753846-43.323077 25.6-13.784615 9.846154-31.507692 11.815385-47.261538 5.907692L216.615385 246.153846l-78.769231 137.846154 72.861538 59.076923c13.784615 9.846154 19.692308 27.569231 17.723077 43.323077 0 7.876923-1.969231 17.723077-1.969231 25.6s0 15.753846 1.969231 25.6c1.969231 15.753846-5.907692 33.476923-17.723077 43.323077l-72.861538 59.076923 78.769231 137.846154 84.676923-35.446154c15.753846-5.907692 33.476923-3.938462 47.261538 5.907692s29.538462 19.692308 43.323077 25.6c15.753846 7.876923 25.6 21.661538 27.569231 37.415385L433.230769 905.846154h155.569231l13.784615-94.523077c1.969231-15.753846 11.815385-31.507692 27.569231-37.415385 15.753846-7.876923 29.538462-15.753846 43.323077-25.6 13.784615-9.846154 31.507692-11.815385 47.261539-5.907692l84.676923 35.446154 78.76923-137.846154-72.861538-59.076923c-13.784615-9.846154-19.692308-27.569231-17.723077-43.323077 0-9.846154 1.969231-17.723077 1.969231-25.6s0-17.723077-1.969231-25.6c-1.969231-15.753846 5.907692-33.476923 17.723077-43.323077l72.861538-59.076923zM502.153846 748.307692C376.123077 748.307692 275.692308 647.876923 275.692308 521.846154S376.123077 295.384615 502.153846 295.384615 728.615385 395.815385 728.615385 521.846154 628.184615 748.307692 502.153846 748.307692z" fill="#E6F3FF" p-id="2141"></path><path d="M502.153846 521.846154m-128 0a128 128 0 1 0 256 0 128 128 0 1 0-256 0Z" fill="#E6F3FF" p-id="2142"></path></svg>